<?xml version="1.0" encoding="utf-8"?>
<!-- Generator: Adobe Illustrator 24.1.1, SVG Export Plug-In . SVG Version: 6.00 Build 0)  -->
<svg version="1.1" id="Layer_1" xmlns:serif="http://www.serif.com/"
	 xmlns="http://www.w3.org/2000/svg" xmlns:xlink="http://www.w3.org/1999/xlink" x="0px" y="0px" viewBox="0 0 640 480"
	 style="enable-background:new 0 0 640 480;" xml:space="preserve">
<style type="text/css">
	
		.st0{fill-rule:evenodd;clip-rule:evenodd;fill:#A7D7FC;stroke:#0DF228;stroke-width:0.4433;stroke-linecap:round;stroke-linejoin:round;stroke-miterlimit:10;}
	.st1{opacity:0.5;}
	.st2{fill:#737F8C;stroke:#333333;stroke-width:0.4528;stroke-linejoin:round;stroke-miterlimit:1.2667;}
	.st3{fill-rule:evenodd;clip-rule:evenodd;}
	
		.st4{fill-rule:evenodd;clip-rule:evenodd;fill:#A4E69D;stroke:#333333;stroke-width:0.4528;stroke-linejoin:round;stroke-miterlimit:1.2667;}
</style>
<g id="Lautan">
	<rect y="94" class="st0" width="639.9" height="291.9"/>
</g>
<g id="Outsider" transform="matrix(1,0,0,1,-17.4771,18.4557)">
	<g class="st1">
		<g transform="matrix(1,0,0,1,640.962,149.778)">
			<path class="st2" d="M-426,29.9l0.3,2.8l3.9,2.3l6.7-0.2l-0.3,1.4l3,0.9l0.1,1.2l1-1.2l7.9,3l-4.5-2.2l0.3-3l1.6,0.5l0.6-5.6
				l0.2-1.4l-0.2-3l3,0.8l0.3-2V21l2.4-2.3l18-3.4L-369-1.4l0.3-3.7l6.4-0.6l6.9-5.3c0,0,0.6,2,0.6,2.5c0,0.5,2.1-0.9,2.1-0.9
				l1.5,0.8l3.9-3l0.3-1.4l-3.6-2.2l3.3-2.8l3,0.5l1.8-3.7l0.7-0.5l0.9-4.1l6.4-6.7l2.7-5.5l0.9,2.5l-0.6,2.8l3.1-3l0.9-2.3l1.5,0.2
				l1.5,5.6l3.6,0.9l1.3,2.2l-2.1,2.2l1.5,3.3l-1.9,1.2l4-0.6l2.2-1.7l1.6,3l-3.3,0.5l1.6,1.1l3.4-1.7l4.3,1.9l0.1,2l1.5-0.3
				l2.7,2.3l3.6-0.8l1.2,2.8l-7.5,4.4l-3,0.2l-2.4-1.6l-2.2,2.8l6.3,5.9l-6.7,1.6l-2.7,0.6l-3.7-1.6v2.2l-1,0.2l-3.7-2.2L-339-1.7
				l-2.2,1.1l-2.5-2l-0.1,2.3l-1.9,0.8l-1.5,3.9v6.1l-0.9,5.9l-2.4,1.1l-1.6-0.8l-2.4,2.5l2.4,4.7l-6.1,4.4l-0.4,5l-1.8,2.8
				l-0.3,2.7l-1.6-1l-3.7,0.5l-6.7,3l-1-1.2l-1.9,0.8l-5.4-2l0.7-1.4l-2.4-0.9l-0.9,0.9l-4.2-1.1l-4,2.8l-1.2,3.6l-2.4-0.2l-0.7,2.3
				l-2.7-1.1l-1.9,1.4l-3.6-1.6l-9.1,3.6l-7.8-5.8l-1.5-2.5l-3.4-5.2l-1-0.9L-426,29.9z"/>
		</g>
		<g transform="matrix(1,0,0,1,170.293,345.468)">
			<path class="st2" d="M-104.4-263.3l-2.4,5l1.2,6.9v5.6l1.2,0.6l1.2-7.5l4.2,1.9l-0.6,3.7l3.6-1.2l5.4,10l4.2,3.7l-1.2,3.1
				l8.4,7.5l1.8,10l-3,2.5l1.8,6.2l2.4,4.4v6.2h3l-0.6,2.5l9.6,12.5l-1.8,3.1l14.4,11.2l12,7.5l4.2,3.1l2.4-2.5h7.8l-5.4-12.5
				l-2.4-4.4l-4.2-5v-10l-1.8-3.1l1.8-6.9l-1.2-6.9l-4.2-8.1l-9.6-8.7h-4.2l-6-8.1l-3-1.9h-5.4l-4.2-4.4l-4.8-11.2l-2.4-6.2l-3-6.9
				v-1.9H-104.4z"/>
		</g>
		<g transform="matrix(1,0,0,1,1343.29,102.968)">
			<path class="st2" d="M-906-3.1l1.2,3.5V6l-4.2,4.4l-0.6,7.5l-1.8-3.1l0.6-3.7c0,0-4.2-5-4.2-7.5c0-2.5-3,3.1-3,3.1l-3,5l4.8,6.2
				l-0.6,5l-3.6,6.2l-2.4-2.5v-4.4V21l-1.8,4.4l-3-0.6l-6-3.1l-4.8-5.6l-0.6-7.5l2.4-1.9V2.3l-7.2-5.6l-1.8,1.2l-0.6,1.2v5l-3.6-5
				l-1.2,0.6l-0.6,3.1h-3v-4.4l-4.2-0.6l-3.6,12.5l-4.5-1.4l0.4-2.9l1.7-1.5l0.2-2.6l1.3-1.8l-0.6-1.8l2.3-3.5l4.2-1.5l4.2-0.2
				l0.6-1.3l-0.2-1.5l2.1-2.9h3l1.1-2l1.9-0.2l2.5,0.9l1.5,4l0.2,2.2l-3,2.4l0.8,1.1l3.4-3.3l3-0.7l1.5-2.2l0.4-2.9l3,0.4l2.3,1.3
				l0.6-5.7v-1.3l1.1-0.9l1.5,1.3l2.5,1.3l0.2-3.3l2.3,1.5l2.3-0.4l-0.8-2.2l9.1,0.2l0.6,1.8h1.3l0.2,2l-0.6,0.7l-0.2,1.5l-2.3,0.9
				l1.3,1.8l2.5-0.4l0.2,1.1l-0.8,3.8l1.7-0.4l-0.4,3.3l-0.6,0.7L-906-3.1z"/>
		</g>
		<g transform="matrix(1,0,0,1,1280.03,789.1)">
			<path class="st2" d="M-862.7-456.6l3-0.3l0.3,2.8l-2.4,1.9l0.3,3.7l5.1-3.7l3.9-1.9l2.7-0.3l3.3-2.2l4.5,0.3l2.1-3.1l2.7-0.9
				l5.7-3.4l-1.8-1.9l-2.1,0.9l-0.6-1.2l-4.5,2.2h-2.4l-4.8,0.9l-2.7-0.9l-6,1.9l-4.2,0.6l-0.9,1.6L-862.7-456.6z"/>
		</g>
		<g transform="matrix(1,0,0,1,1950.79,810.784)">
			<path class="st2" d="M-1321.1-566.9l0.6,51.5l-3.6,5.6l3,2.2l-0.6,31.5l2.4,2.2l3.3-2.2l2.1,2.2l3-0.9l3-0.3l3.3-0.3l3.3,1.9
				l2.4,0.9v-84.9l-8.7-3.1l-0.3-1.2h-1.5L-1321.1-566.9z"/>
		</g>
	</g>
</g>
<g id="Indonesia-Map" transform="matrix(1,0,0,1,-18.4771,18.4557)" serif:id="Indonesia Map">
	<g id="Banten" transform="matrix(1,0,0,1,485.674,701.557)">
		<path class="st3" d="M-319.2-410l1.2-1.7l1.1,0.5c0,0,0.5,0.9,0.2,1c-0.3,0.1,1.1,0.2,1.1,0.2l1-1.1l2.9,1.7l1.4-0.7l0.8,0.4
			l-0.5,3.4l0.8,2.2l-3.5-0.2l-0.7,1.7l0.8,3.4l-0.9,3l-1.2-0.4l-2.3-1.5l-1.9-0.7l-2.4,0.8l-1.3-0.5l-1.6,0.4l-1.3-0.1l-1.5,0.7
			l-0.3-1.4l-1.1,0.1l0.1-1l1.7-0.8l1.4,1.5l1.5-2.1l1.2-1.6l1.2-0.4l0.6-1.1l0.5-4.3L-319.2-410z"/>
	</g>
	<g transform="matrix(1,0,0,1,529.825,681.863)">
		<path class="st3" d="M-349.4-389.3h-1.4l-0.7,0.3l-1-0.1l-1.2-1l-0.6,3.5l1,2.2l1.5,0.8l1.6-0.8l0.8-2.3L-349.4-389.3z"/>
	</g>
	<g id="Jawa-Barat" transform="matrix(1,0,0,1,529.993,735.541)" serif:id="Jawa Barat">
		<path class="st3" d="M-349.5-443.2l0.2-2.2l1.9,0.9l1.7-0.3l1.3,0.6l1.2,1.9l1.2,0.6l0.8,0.9l1.1,0.1l1.2-0.5l0.8,0.1l3,1.8
			l1.2-0.1l0.7-1.2l1.5,0.6l2.2,2.6l0.8,3.4l2.2,1.2h0.7l-0.5,4l-3.2,2.4l-0.1,1.5l2,2l0.3,2.4h-0.9l-0.7-0.2l-2,1.7l-6.1-1.2h-1.3
			l-1.2-0.7l-1-0.1l-1.4-1.3l-1.7-0.8l-2.9-0.4l-9.3-1.2l-0.7-0.3l-1.1-0.1l-0.5-1.5l0.5-1.2l1.6-1.4l-0.2-1l-0.8-0.4l-1.2,0.7
			l0.7-3.3l-1-3.2l0.9-1.7l3.4-0.1l1.6,0.8l1.6-0.7l1-2.3L-349.5-443.2z"/>
	</g>
	<g id="Jawa-Tengah" transform="matrix(1,0,0,1,606.089,744.079)" serif:id="Jawa Tengah">
		<path class="st3" d="M-401.5-441.7l0.8,0.1l0.5,0.4l1.2-0.6l3.9,1.3h0.5c0,0,2.2-0.7,1.7-0.7s3.7,0.5,3.7,0.5l2.9,0.9l3.1-0.9
			l2,1.2l1.4-0.1l2.1-2.1l0.8-3.8l1.3-1.2l1.9-0.4l1.9,0.6l0.5,0.4l0.4,1.8l0.5,0.7l0.7,0.5l2.3,0.1l1.7-0.8l1.2,0.1l1.1,1.2
			l-1.1,2.6l-0.5,2.4l-0.1,1.4l-1.6,2l-0.7,0.4l-2.3-0.7l-0.7,1.1l0.4,5.4l0.8,1l-0.4,1.5l-2.8,1.7l-1.3,0.9l0.4,1l-2.3-0.7
			l-0.4-4.5l-2-0.8l-1.5-0.8l-1.1-1.7h-1.5l-1.2,0.8l-1.9,2.9l-5.3-1.6l-1-0.1l-1-0.3l-1.2,0.4l-1.6-1.3h-2.6l-0.5,0.4l-2.2-0.7
			l-0.2-1.2l-0.8,1l-1.1,0.2l-0.3-2.2l-2.1-1.8l0.1-1.7l3.1-2.3L-401.5-441.7z"/>
	</g>
	<g id="Daerah-Istimewa-Yogyakarta" transform="matrix(1,0,0,1,657.098,746.519)" serif:id="Daerah Istimewa Yogyakarta">
		<path class="st3" d="M-436.4-428.6l2.2-3.8l1.3-0.2l1.3-0.2l1.1,2l3.4,1.5l0.5,2.8l-0.1,1.9l-4.6-1.4l-2.7-1.7L-436.4-428.6z"/>
	</g>
	<g id="Jawa-Timur" transform="matrix(1,0,0,1,725.873,785.4)" serif:id="Jawa Timur">
		<path class="st3" d="M-483.4-483.9l2.3,1.2l1-0.4l1.3,0.5l0.7,1l4.4-0.5l1.1,0.5l1.1-0.2l-0.3,1.2l0.7,1l-0.4,0.6l0.7,0.7l0.2,1.1
			l0.9-0.4l1.1,0.8l-0.1,2l-0.6,1v0.9l4.9,2.7l1.4,0.4l0.6,0.3l2.9-1l3.4,0.2l1-0.5h1l1-0.8l1.2,0.1l0.7,1.1l3.4,0.9l0.7,0.5l0.1,1
			l-0.3,1v1l-1,4.4l-0.2,0.7l0.9,1.2l0.1,1.1l0.5,0.9l1.8,0.7l-0.4,1.5l-1.9-0.6l-1.2,0.1l0.3-1l-1-0.7l-1.2,0.5l-0.9-0.4l-1.9,0.1
			l-5.4-2.7l-0.8-0.1l-3.2-2l-0.6-0.2l-3,0.5l-0.7,1.1l-1.6-0.3l-1.3,0.1l-0.7,0.8l-5.1-1.6l-1,0.5l-0.7-0.5l-2.6-0.2l-1.3-0.6
			l-0.7-0.1l-1,0.6v1.2l-2.4-1.2l-0.7,0.1l-2.4-0.7l-1.9,0.5l-1-1l-1,0.6l-0.7-0.4l-0.6-1.1l4-2.7l0.4-1.2l-0.7-1.1l-0.6-5.3l1-1.2
			l2.2,0.9l2.3-2.7l0.2-3.6L-483.4-483.9z"/>
	</g>
	<g id="Pulau-Madura" transform="matrix(1,0,0,1,776.723,715.406)" serif:id="Pulau Madura">
		<path class="st3" d="M-518.1-411.7h8.7l2.7-0.1l0.5,0.3l1.9-0.7l2.2,1.8l-2.2,0.6l-1,0.2l-0.4,1.3l-2.4-0.3l-1.1,0.9l0.1,0.7h-5.2
			l-1-1.1v1l-3.5-0.7l-1.6-0.9v-1.2L-518.1-411.7z"/>
	</g>
	<g id="Lampung" transform="matrix(1,0,0,1,389.78,612.384)">
		<path class="st3" d="M-253.7-335.8l1.3-1.2l0.3,1.7l1.7,0.2l2.7-0.5l3.2-7l5.2-2.9l4.8-2l0.2-2.1l1.8-0.2l1.1-1.2l1.3,0.3l1.6,2.7
			l1.3,1.4l2.1,0.2l-0.1,2l1.4,2.8l-0.1,1.6l0.3,0.9l-0.8,2.1l0.7,0.8l-1.6,12.9l-1.3,1l-5.8-5.9v1.2l-0.7,0.9l0.2,2.1l-1.5,0.2
			l-5.8-4l-1.6,0.6l1.9,3.5l-0.3,2l-1.2-0.1l-0.6-1.6l-3.1-2.7l0.1-0.8l-3.8-3.4l-0.2-1.3l-1.3-1l0.2-0.7l-2.2-1.4L-253.7-335.8z"/>
	</g>
	<g id="Sumatera-Selatan" transform="matrix(1,0,0,1,323.083,569.499)" serif:id="Sumatera Selatan">
		<path class="st3" d="M-208.1-322.5l8.1-4.3l0.2-2.3l3-0.5l1.3-1.4l0.7,0.5l0.7,2.4h1l2.4-2.4l0.1-2.1l5.9-3.9l4.6,0.7l1.6,0.2
			l0.6-1.1l0.3-1.2l2-0.2l0.4,1.3l-0.7,1.2l0.4,0.9l0.5-1.1l1.3,1.3l-0.2,0.7l1.4,0.3l0.8-0.2l0.9,1.6l-0.4,1.8l-1.8,1.8l-1.1,0.2
			l1.3,0.6l-0.4,1.7l-1.8,1.5l-0.4,1.4l1.3-1.8l1.4-0.5l0.4-2.6l1.4-1.3l0.4,1.1l0.8-0.9l1.3,0.7l2.4-0.6l4.1,1.2l0.8-0.4l-0.3,2.2
			v0.7l2.9,1.7l-0.2,2.3l0.7,0.8l1.9,0.1l0.5,1.2l0.4,2.2l-2.2,2.7l-1.2,4.4l1.9,1.9l-2.1,4.5l-2.1-0.5l-2.9-4l-1.3-0.5l-1.1,1.2
			h-1.9l-0.1,2.5l-10,5l-3.3,7.1l-4,0.2l-0.7-1.7l-2-4.5l-3.1-2.3l-2.4-0.9l-2.1-0.3l-5.5-6.1l1-1l4.6-3.6l-3.9-2.5l-2.5,0.2
			l-1.6-1.2v-1.4l-2.2-0.9L-208.1-322.5z"/>
	</g>
	<g id="Bengkulu" transform="matrix(1,0,0,1,280.746,606.469)">
		<path class="st3" d="M-179.2-363.6l2.2-2.3l2.1-1.1l1.6,1.3v1.6l1.6,2.2l3.7,2.1l2.2,0.5l2.6,3.9l2.5,0.8l0.1,1.3l1.3,1.3l2.5-0.3
			l3.4,2.5l0.1,1l-3.4,1.6l-0.6,1.8l-1,0.3l5.2,5.8l5.5,2l2.5,2.3l1.2,3.3l0.3,0.9l-1.1,1.2l-3.7-2.2l-1-0.2l-0.4-1.2l-12.9-10.1
			l0.4-1.2l-1.3-3.3l-8.2-5.7l-1.9-2.8l-2.3-4.5L-179.2-363.6z"/>
	</g>
	<g id="Jambi" transform="matrix(1,0,0,1,380.557,522.426)">
		<path class="st3" d="M-247.4-303.4l-8.4-0.2l-1.9,2l-0.7,2.2l-1.1,0.2l-3.8-2.7l-4.1,0.1l-2,2.2l-3.7,6.6l-2.2,5l-0.4,3l1.3,2
			l1.1,1.1l0.3,1.7l2.2,2.9l3.2,1.6l1.8,0.3l8.5-4.5l0.1-2.5l3-0.1l1.2-1.4l0.7,0.7l0.7,2.3l1.3,0.1l2.2-2.6l0.1-2.2l6.4-4l5.3,1
			l1.6-2l1.3-0.2l-0.7-3.5l0.1-0.9l-0.9-2.3l0.3-1.1l-0.7-1.1l-2.2,0.5l-1.2-0.7l-1.9-0.5h-1.1l-0.6,1.1L-247.4-303.4z"/>
	</g>
	<g id="Sumatera-Barat" transform="matrix(1,0,0,1,202.932,484.471)" serif:id="Sumatera Barat">
		<path class="st3" d="M-126-279.9l3.4-4.3l4.4,1.5l1.4-0.6v-1.2l-1.7-2.9l0.5-0.7l4.6,1.6l0.2,2.7l2.2,2l2.1-0.2l4.3,3.6l0.1,1.7
			l-0.6,2.6l6.7,9l1.8,1.8l4.1,1.9l-5.4,11.6l-0.4,3.2l1.3,1.6l-2.2,1.3l-2.5,2.4l-2.5-4.5l0.8-2.7l-4.3-9.1l-2.9-2.6l0.7-1.2
			l-1.1-3.2l-6.4-7.3l-0.3-1l-0.6-1.2l0.1-0.8l-3.9-3.4h-0.8l-0.7-0.9l-1.6,0.5L-126-279.9z"/>
	</g>
	<g id="Pulau-Siberut" transform="matrix(1,0,0,1,178.571,469.683)" serif:id="Pulau Siberut">
		<path class="st3" d="M-109.4-245.2l1.4-3.1l1,0.3l1.1-0.5l1.2,0.2l-0.2,1.1l2.7,5l0.5,1.4l1.3,2l-1.3,2.2l-0.7,0.4l-4-2.6
			l-0.1-1.2L-109.4-245.2z"/>
	</g>
	<g transform="matrix(1,0,0,1,219.488,500.244)">
		<path class="st3" d="M-137.4-262.5l-0.2-1.3l1.1-0.1l3.3,4.8l-4.5-2.3L-137.4-262.5z"/>
	</g>
	<g transform="matrix(1,0,0,1,237.699,525.137)">
		<path class="st3" d="M-149.8-282.3l2.5,2.5l-0.2,1.2l-1,0.8l-0.7,0.3l-0.7-1.7l0.1-0.9L-149.8-282.3z"/>
	</g>
	<g transform="matrix(1,0,0,1,248.343,547.074)">
		<path class="st3" d="M-157.1-300.1l3.2,3.6v0.5l-1.3,0.5l1,3l-1.9-1.6v-1.2l-1.8-2.1l-0.4-2.2L-157.1-300.1z"/>
	</g>
	<g id="Riau" transform="matrix(1,0,0,1,247.855,447.29)">
		<path class="st3" d="M-156.7-275.2l2.1,3.6l1.4,2.8l3.1,1.2l1.8,1.9l1,2.1l-0.8-3.1l-1-1.3l0.5-2.4l3.1,0.1l-0.5,0.2l0.5,1
			l3.1,1.9l0.4,2.9l1,2l1.8,0.8l2-0.2l5.6,3.9l0.3,2.3l0.8,1l-0.2,1.9l4.3,3.6l4.2,0.2l2.8,1.9l0.1,1.2l-5.6,4.1l-2.5,0.1l1.8,0.6
			l3.6-1.5l6.5-3.3l2.8,1.5l0.6,1.5l1-0.4l1.6,4.3l-2.9,1.3l-2.6,2l0.8,0.8c0,0-1.5,1.4-1.1,1.4c0.4,0,2.9,1.1,2.9,1.1l-2.8,0.6v3.3
			l-7.6-0.2l-2.1,2l-0.4,2.4l-1.1,0.1l-3.9-2.6h-4.7l-2,2.6l-4.6-1.9l-8.3-11l0.5-3.2l0.1-1l-4.4-3.3h-1.7l-2.8-2.1l-0.1-2.6l0.6-6
			l-1.8-2.4l4.8-3.2v-1.8l-2.1-3.3l0.4-2.8l-0.4-1.8L-156.7-275.2z"/>
	</g>
	<g transform="matrix(1,0,0,1,299.699,323.556)">
		<path class="st3" d="M-192.2-143.3l1-0.3l1.2-0.8l2,2.2l-1.1,1.7l0.1,1.2l-1.6,0.8l-2.1-0.9l-0.6-2.9L-192.2-143.3z"/>
	</g>
	<g transform="matrix(1,0,0,1,324.117,345.165)">
		<path class="st3" d="M-208.9-159l5.1,1.1l0.8,2v1.4l-1.6-0.3l-1.6-1.5h-1.3l-1.8-1.7l-0.7-0.6L-208.9-159z"/>
	</g>
	<g transform="matrix(1,0,0,1,332.145,361.547)">
		<path class="st3" d="M-214.3-172.2l2.9,2.4l-0.5,1.3l0.2,1.4l-0.7,1.3l-1.9-2l0.2-1.5l-0.4-1.1l-0.5-1.8L-214.3-172.2z"/>
	</g>
	<g transform="matrix(1,0,0,1,349.872,359.458)">
		<path class="st3" d="M-226.5-165.6l1.7,0.4l3.8,2.4l1.2-0.2l-2-2.5l-4.1-1.7L-226.5-165.6z"/>
	</g>
	<g transform="matrix(1,0,0,1,344.52,370.262)">
		<path class="st3" d="M-222.8-177.3l1.7,1.9l1,0.1l3.5,1.7l0.2,2.1l-2-0.9l-3.6-0.2l-2.3-1.1l0.8-1.8L-222.8-177.3z"/>
	</g>
	<g id="Pulau-Bangka" transform="matrix(1,0,0,1,452.225,515.261)" serif:id="Pulau Bangka">
		<path class="st3" d="M-296.4-279.7l3.3-2.1l-1-1.3l1.6-1.9l2.6-0.4l1.1,2.8l1.2,0.1l-0.5-3.1l1.8-0.4l3.5,4.6l-0.3,2.5l2,5.4
			l5.5,2l-1.1,3.9l1.1,2.3l-2.4,1.1l-1.9-1.4l-4.9-2.1l-1.4-2.9l1-2.2l-2.1-1.8v-3.2l-3.7-0.2l-3.1,0.9l-2.4-1.2L-296.4-279.7z"/>
	</g>
	<g id="Pulau-Belitung" transform="matrix(1,0,0,1,554.244,520.833)" serif:id="Pulau Belitung">
		<path class="st3" d="M-366.1-269.3l1.3-7.8l5,0.4l3.3,2.5l-0.5,1.8l-0.5,4.2c0,0-1.5,1.5-1.9,1.4c-0.4-0.1-3.5-2.4-3.5-2.4l-2,1.3
			L-366.1-269.3z"/>
	</g>
	<g id="Sumatera-Utara" transform="matrix(1,0,0,1,152.79,297.408)" serif:id="Sumatera Utara">
		<path class="st3" d="M-91.8-120.3c0.2-0.3,0.7-8.3,0.7-8.3l0.4-1.4l-1.9-3.7v-3l-1.6-4.4l2.6-3.1l1.3-3.1l2.7-1.8l0.1,3.5l4.3,2.3
			l1.3,0.5l0.7,2.3l5.8,2.4l3.5,2.7l1.2,1.6l2.3,0.8l2.1,2.8l1.8,1.2l-0.7,2.2l0.3,1.6l0.1-1.2l0.9,0.3l0.1,1.5l0.7,0.9l-0.1-1.3
			l0.1-1h1l0.7,0.4l-0.4,5.2l0.6,1.5l-0.4,2.8l2.2,3.1l-0.1,2l-4.6,3.3l1.5,2.2l-0.7,6.1l-4.4-1.6l-0.6,1l1.9,2.7l0.1,1.2l-1.3,0.7
			l-4.5-1.6l-3.6,4.1l-3.9-13.7l-2-3.9l0.9-0.3l0.7-0.9l-0.7-1.3l-1.1,0.2l-3.5-3.6h-1.3L-91.8-120.3z"/>
	</g>
	<g id="Pulau-Nias" transform="matrix(1,0,0,1,116.13,372.578)" serif:id="Pulau Nias">
		<path class="st3" d="M-66.7-183.9l2.5,0.4l1.6-1.6l4,4.8l1.2,0.1l0.4,1.2l1.3,0.9l-0.2,1.6l-0.4,3.7l-1,0.9l-1.9-0.9l-0.8-3
			l-1.6-1.2l-1.8-0.2L-66.7-183.9z"/>
	</g>
	<g id="Aceh" transform="matrix(1,0,0,1,38.7881,298.147)">
		<path class="st3" d="M-13.9-166.8l2.7-1.2l1.2,1.1l1.3-0.3l3.9,1.4l2.7,3.6l2.2-0.2l1.5,0.8l4.6-0.6l4.2-0.2l1.3,1.9l3.7-1.4
			l3.6,3.3l2.7,2.3l0.4,3.3l3.6,1.6l0.3,1.7l-2.4,1.4l-1.2,3.4l-2.8,3l1.5,5.3v2l1.9,3.7l-1.5,9.8l-3.6-1.2l-1.3-7
			c0,0-2.7-1.6-3.3-2c-0.6-0.5-1-2.7-1-2.7l-5.7-7.5H2.4l-3.7-5.3h-1.5l-9.1-9.8l-1.8-6.4l-0.2-2V-166.8z"/>
	</g>
	<g transform="matrix(1,0,0,1,58.1836,293.958)">
		<path class="st3" d="M-27.1-124.4l0.8-0.5l0.4-1l1.3,0.1l0.3,1.1l2.8,1.4l-0.2,1.1l1.3,0.2l1.9,2l0.2,0.8l0.7,0.1l0.4,1.2
			l-1.6,0.1l-0.4-0.3c0,0,0.7-0.5,0.2-0.6c-0.4-0.1-4.3-2.8-4.3-2.8l-1.1,0.5l-1.8-1.2L-27.1-124.4z"/>
	</g>
	<g transform="matrix(1,0,0,1,414.142,360.995)">
		<path class="st3" d="M-270.4-167.6l2.1-1.2l1.9-0.1l2.2,2.2l-0.7,1.8l-1.3,1l-1.1-1.2l-0.2-1.8l-2,0.6L-270.4-167.6z"/>
	</g>
	<g transform="matrix(1,0,0,1,427.15,415.216)">
		<path class="st3" d="M-279.3-206.7l1.1-0.1l0.3,1.4l1.8,1l1.1-0.3l1.9,2l-1.1,0.5l-3.2-1.7l-2.4,1.1l-0.7-0.5L-279.3-206.7z"/>
	</g>
	<g transform="matrix(1,0,0,1,401.843,352.861)">
		<path class="st3" d="M-262-158.9l1-1.7l1,0.2l1,0.3l-0.1,1.1l-0.9,1l-2-0.3V-158.9z"/>
	</g>
	<g transform="matrix(-0.480792,-0.876835,-0.876835,0.480792,414.812,361.139)">
		<path class="st3" d="M274,159.4h2.5l-1.5-0.6l-0.4-0.8L274,159.4z"/>
	</g>
	<g transform="matrix(0.950898,0.309504,0.309504,-0.950898,426.56,389.498)">
		<path class="st3" d="M-322.6,88.9h0.9l2.3-1.2l-2,0.2L-322.6,88.9z"/>
	</g>
	<g transform="matrix(1,0,0,1,418.275,428.991)">
		<path class="st3" d="M-273.2-215.7l0.2,1l1.9-1.2l0.9,0.9l0.5,1.2l-0.5,1l-1.4,0.3l-1,0.9l-0.3-1.1l-1.2-1l-0.1-1.1l1.2-0.9
			L-273.2-215.7z"/>
	</g>
	<g id="Kepulauan-Riau" transform="matrix(1,0,0,1,571.637,233.63)" serif:id="Kepulauan Riau">
		<path class="st3" d="M-378-80.7c0.3,0,2.7-2.8,2.7-2.8l1.9,2.4l0.7,0.4l0.3,2.4l-1.2,2l-2,0.8l-1-0.6l0.9-1.2h0.9l-0.9-0.8
			l-1.4-0.6L-378-80.7z"/>
	</g>
	<g id="Kalimantan-Barat" transform="matrix(1,0,0,1,640.876,535.474)" serif:id="Kalimantan Barat">
		<path class="st3" d="M-425.3-355.7l-1.3,3.2l0.8,0.8l0.7,1.8l2.1,3.1l1.7,1.2l0.8,1.2l7.1,5.6l3.1-1.1l6.4-2l1.7,1.1l1.4-0.4
			l0.5,0.6l2-0.7l1.3,0.7l1.1-0.3l0.6-1.8l2.5-0.3l1.2-4l4.4-1.9l3.4,0.4l1.5-0.6l2.1,0.6l-0.5,1.2l4.2,1.9l1,0.6l2.3-0.7l0.8,1.1
			l3.6-2.1l3.5-0.9l-0.2,3.3l-3.7,1.8l-0.7,2l1.2,2.6l-0.2,1.8l-3.2,1.2l-2.6,4l-0.6,6.5l-2.3,0.6l-0.6,3.5l-14.3,3.6l-1.9-0.1
			l-5.3,3.6l-6,7.2l-2.4,0.2l0.8,2.4l-0.7,3.9l2,4.7l-0.2,3.4l0.2,2.2l-2.3,1.7l-2.2,0.9l-0.7,1.9l-1.2-0.4l-1.4-2.4l-3.6,1.4
			l-0.3-1.1l0.1-3.3l-1-0.8l1.1-0.8l-1.7-3.5l-0.1-1.4l0.2-1.7l-0.7-1.8l-1.7-1.3l-0.1-1.3l2.1-1.4l-0.5-4.9l-1.6-0.9l-0.2-1.7
			l-1.5-1l-0.6-2.1l-1.6,0.7l-1.1-0.7l-2,0.3l-1.9-1.7l0.2-1.3l3.3,0.6l-1.8-1.1v-1.2l-3.5-0.9l0.7-2.1l-1.4-2.2l1.8,0.1l-0.3-3h1.2
			l-3.2-4h-0.8l-1.1-3.3l0.2-1.1l-0.8-3.1l1.8-1l-0.4-3.4l1.3-0.3l3-2.6l-3.3,2l0.7-1.7v-2.1l3.7-3.5l0.2-2.1l2.5-0.8L-425.3-355.7z
			"/>
	</g>
	<g transform="matrix(1,0,0,1,631.342,447.116)">
		<path class="st3" d="M-418.8-221.8l0.5-2.4v-0.8l2-0.1l1.6,0.6l0.3,1.2l-0.7,0.9l-3,1.7L-418.8-221.8z"/>
	</g>
	<g id="Kalimantan-Tengah" transform="matrix(1,0,0,1,819.769,554.466)" serif:id="Kalimantan Tengah">
		<path class="st3" d="M-547.5-355.2l6.6,0.9l6.7-1.9l2.1,1.6l-0.2,3.7l-1.6,5.9l0.6,0.6l3-2.2l0.7,4.2l-0.2,3l1.5,2l0.1,4.1
			l4.5,2.5l0.4,2.5l-2.1,2.5h-1.3l-4,10.1l-4.9,0.8l0.7,4.1l-1.6,1.2l-0.1,1.9l-4,1.2l-1.6,3.9l-0.1,2l-1.8,1.4l-0.9-0.5v-2.2
			l-1.5,2.3l-3.4,1.7l-1.9-0.9l0.6-2.7l-0.9-1.2l-2.7,1.6l-2.8-2v-0.8l-1.9-1.1l-0.9,2.8l-5.1,3.7l-3.9-2l-1.3,0.5l-2.8,3.3
			l-2.1-0.6l0.6-3.9v-1.6l-1.5-4.5l-0.7,1.9l-1.6,0.8l-2.7-0.9l-4.9,2.5l-2.8-2.3l4.5-2.5l0.3-6.2l-1.9-3.9l0.6-4.1l-1-3.3l2.5,0.3
			l6.1-7.2l5.5-3.9l15.7-3l1-3.7l2.2-0.6l0.7-7l2.4-3.7L-547.5-355.2z"/>
	</g>
	
		<g id="Kalimantan-Utara---Kalimantan-Timur" transform="matrix(1,0,0,1,18.4771,-18.4557)" serif:id="Kalimantan Utara + Kalimantan Timur">
		<g id="Kalimantan-Utara">
			<polygon class="st4" points="272.9,212.3 276.7,210.9 277.6,208.1 279.3,205.3 281.8,204.4 285,202.7 286.4,197.5 287.7,194.5 
				290.1,194 291.2,192.4 293.7,192.5 296.5,193.7 298.4,193.2 299.6,192.6 302.1,193.7 304.5,194.6 306.1,195.1 308.6,195.3 
				306.7,192.1 304.7,189.3 302.9,188 301.7,186.1 302.9,184.4 300.5,184.1 298.7,182.3 300.1,180.4 297.8,179.1 295.8,177.2 
				299,176.4 301.3,177.3 301,175.4 303,176.7 305.4,176 302.3,172.5 300,170.6 298.9,169.8 301.4,170.1 302.5,168.9 300.8,168.9 
				297.8,166.8 286.7,167 283.8,166.7 281.8,167.7 279.7,166.1 279.7,167.7 277.6,168.9 276,172.7 276,179 274.6,184.7 272.2,185.7 
				271.2,184.9 268.7,187.5 269.4,190 270.6,191.7 268,194.2 265.2,196.5 264.6,201 262.5,204.3 262.3,206.9 			"/>
		</g>
	</g>
	<g id="Kalimantan-Selatan" transform="matrix(1,0,0,1,833.015,491.864)" serif:id="Kalimantan Selatan">
		<path class="st3" d="M-556.6-236.8l2.8,1.8l1.1-2.6l-0.3,2.8l0.8,1.6l0.1,6.4l1.1,1.2l14.2-6.6l0.7-1.2l2.2-0.4l1.4-4.4l1.6-2.1
			l-1.1-2.9l0.3-1l1.1,2.2l2.1-1.6l-0.1-3.8h-0.7l-0.1-1.2l2.8,0.4l0.6-3.3l-7.9-1.2l0.3-3.6l-0.9-3.3l1.4-1.3l0.2-2.9l-3.4-2.1
			l-2,2.7h-1.9l-3.7,10.4l-5.1,0.4l0.8,4.4l-1.7,1.2l0.2,2l-4.1,1.2l-1.9,4.1v1.8L-556.6-236.8"/>
	</g>
	<g transform="matrix(1,0,0,1,905.861,558.901)">
		<path class="st3" d="M-606.4-300l1.6-4.3l1.7-1.5l0.4,1.2l-0.3,0.6l0.4,1.9v2.1l0.4,0.7l-0.4,1.2l0.1,1.3l-2.5,2l-0.8-1.2l0.2-2.1
			L-606.4-300"/>
	</g>
	<g id="Papua" transform="matrix(1,0,0,1,1952.06,751.923)">
		<path class="st3" d="M-1321.3-507.2h-3.6l-0.4-1.8l-4.4-1.3l-0.2,0.7l-2.8-2.6l-4.4,1.5l-13.3-6.4l-10.6-3.8l-3.2-2.4l-9.3,5.1
			l2.8,2.9l-7.2,3.5l-5.1-0.9l-0.4,3.5l-4.4,3.8l-0.6,2.4l-5.1,4.4l-4,1.8l-5.7-2l0.2-4.6l-1.9,1.1l-0.8,5.1l4,8.8h-3l-0.4,2.2
			l6.6,4.6l3.8-0.7l2.1,0.7l3.8,0.4l5.1,2.9l0.6-0.7l6.1,3.8l1.5-0.7l3.4,1.8l1.7-1.1l9.3,7.5l0.8,2.9l2.8-0.2c0,0-3,2.2-2.1,2.2
			h3.2l-1.3,1.5l5.5,9.7l5.5,3.8l-7.4-0.4l3.2,3.8l4.9,0.4l-1.5,0.9l-6.4-0.4l5.9,4l-0.4,3.3l-1.3,4.4l-0.6,3.1l5.5-2.6l1.1,2.2
			l8.1-1.5l13.8,14.6l0.6-32l-2.8-2.9l1.7-3.3l1.1-2L-1321.3-507.2z"/>
	</g>
	<g id="Papua-Barat" transform="matrix(1,0,0,1,1543.32,559.174)" serif:id="Papua Barat">
		<path class="st3" d="M-1042-339.3l2.9-1.3l1,0.6l4.1-1l1.9-2.4l1.1,0.2l1.6-2.1l3.5-0.7l5.5,1.5l1.2-0.1l1.4,1.1l4.4,3.2l7.9-0.2
			l1.6,2l-1,1.3l3.1,5.4l-2.3,5.4l0.6,3.8l-0.7,1.3l1.3,4.1l0.8,0.9l2.4,4.9c0,0,1.6,0.8,1.5,0.3c-0.1-0.4-1-4.1-1-4.1l0.7-1.5
			c0,0,1.6,0.4,1.2,0.6c-0.4,0.1,0.7,6.8,0.7,6.8l-0.8,5l3.8,7.9l-2.3-0.2l-1.5,0.6l-0.8,1l-1-0.2l-1.7-1.4l-0.8,1.1l-1.8-0.6
			l-0.3-2.5l-1.6,0.9c0,0-2.5-3.2-2.5-2.5c0,0.7-0.2,1-0.2,1l-1.6-0.8l-0.5-1.7l0.4-3l1.1-2.3l1.4-1.2v-1.5l-2.4,2.4l-0.1,2.9
			l-1.2,1.1l-1.1-0.3v0.9l1.3,0.8l-2.4,3.9l0.6,1.1c0,0-2,3.3-3.1,3.2c-1.1-0.1-2.3-0.3-2.3-0.3l-1.8,0.3l-1.5-1.9l-1.2-4.5l2.1-0.3
			l1.1-0.6l-2-2.8l-1.6-1.4l-0.7,0.8l-0.3-1.8c0,0-3.9-3.8-4.6-3.8c-0.6,0-2.3,0.6-2.3,0.6l-0.8-0.9l-0.7-1.8l3.1-1.4l3.2,1.3l1.2-1
			l2.4,1.8l4-4.3l2.8-1.5l2.1,1.4l0.2,2l2.4-1.4l1.3,1.3l1.3-1.4l-0.6-1.5l1.6-0.1l0.7,0.7l0.5-0.9l-0.7-0.2l0.6-2.2l-1.7,0.4l1.2-2
			l-0.7-0.1l-3,1.7h-2.2l-2.9-0.4l-2.9,1.4l-2.9-0.3l-1.2,0.3l-1.3-0.1l-0.3-1l-3.8,1l-2.6-2.3l-0.8-1.3l-1.7-2.6l1.3-2.6l-1.5,0.9
			l0.5-2l-1.9,0.8l0.1-1.2l-0.7,0.7l-3.5-1.8l-0.7,1l-1.3-1.8l-0.1,1.4l-4.8-1l1.4-2.1l1.6-1.1l1.1-2.4L-1042-339.3z"/>
	</g>
	<g id="Sulawesi-Utara" transform="matrix(1,0,0,1,1209.5,352.834)" serif:id="Sulawesi Utara">
		<path class="st3" d="M-813.9-157.5l0.8,0.6l7.7,1.1l5.5-3l1.5-2.5l1.6,0.4l0.4-1l0.2-2.2l1.6,0.3l4.1-4.9l2.8,3l-1.7,2.2l-2.6,5.5
			l-4.1,2.5l-1.4,4.4l-14.4,2.4c0,0,0.5-2.1,0.2-2.7c-0.6-1-1.1-1.8-1.1-1.8c-2.1-0.7-1.6-1.2-2.9-1.4c-0.8-0.2-0.9-1-0.3-1.7
			C-815.6-156.6-816.4-156.3-813.9-157.5z"/>
	</g>
	<g transform="matrix(1,0,0,1,1354.77,204.491)">
		<path class="st3" d="M-913.1-51l0.9-0.9v-0.9l1-1.7l0.1-0.9l-0.6-0.8l0.2-0.9l-0.2-0.6l-0.6-0.5l-1.2,0.3v2.8l0.7,0.6l-0.6,1.1
			l-0.1,0.8l-0.3,0.8L-913.1-51z"/>
	</g>
	<g id="Sulawesi-Tenggara" transform="matrix(1,0,0,1,1119.86,613.549)" serif:id="Sulawesi Tenggara">
		<path class="st3" d="M-752.6-365.2l6.8,1.1l9.2,4.2l1.1,1.9l-1.6-0.3l0.2,2.2l-1,0.8l1.5,1.3l1.9,1.1l2.1,1.8l-0.6,0.9l1.6,1.1
			l-0.2,0.9l1.6,0.2l1.2,3.3l-0.6,0.6l-2.5-1.2l1.2,1.9l-0.8,0.6l-2-1.1l-5.9,1.4l-1,2.3l1.2,2.5l-4.6-0.4l-4.1-1.8l0.7-5.6l1.3-2.3
			v-1.7l-3.8-1l-6-6.4l2.1-4L-752.6-365.2z"/>
	</g>
	<g id="Pulau-Buton" transform="matrix(1,0,0,1,1206.82,629.929)" serif:id="Pulau Buton">
		<path class="st3" d="M-812-355.2l-0.2-3.8l-2.1-1.8l-1.9,2l-0.4,4l-0.8,5.1l-1.5,3.1l-1.3,0.7l1.1,2.4l2.3-0.2l1.5-0.9l-0.8-1.5
			l3.2-1.1l1.5-1.3l-1.9-1.3l-1.3-0.2v-4.4l1.7-2.2L-812-355.2z"/>
	</g>
	<g id="Pulau-Muna" transform="matrix(1,0,0,1,1168.7,605.53)" serif:id="Pulau Muna">
		<path class="st3" d="M-786-323.5l1.3-3.8l-0.6-3.5l3.4-1.8l1.5-1.1l0.8,4.4l-1.9,2.4l0.4,2.9l-1.3,1.8l-0.8-0.9L-786-323.5z"/>
	</g>
	<g transform="matrix(1,0,0,1,1206.82,629.929)">
		<path class="st3" d="M-812-355.2l-0.2-3.8l-2.1-1.8l-1.9,2l-0.4,4l-0.8,5.1l-1.5,3.1l-1.3,0.7l1.1,2.4l2.3-0.2l1.5-0.9l-0.8-1.5
			l3.2-1.1l1.5-1.3l-1.9-1.3l-1.3-0.2v-4.4l1.7-2.2L-812-355.2z"/>
	</g>
	<g transform="matrix(1,0,0,1,1156.65,638.992)">
		<path class="st3" d="M-777.7-360.3l0.6,2v2.6l-1.1,0.4l-2.1-3.1l0.4-2H-777.7z"/>
	</g>
	<g transform="matrix(1,0,0,1,1201.47,585.317)">
		<path class="st3" d="M-808.4-322.1l1.1,0.9l0.2-1.1l1.3,1.8l-1.5,1.5l-0.8,0.7l-1.9-2.4L-808.4-322.1z"/>
	</g>
	<g id="Gorontalo" transform="matrix(1,0,0,1,1161.17,388.734)">
		<path class="st3" d="M-780.8-194.8l3.1,0.6l0.7-0.2l3.3,0.8l3.1,1.7l1.3-1.3l0.7-0.3l1.6,0.8l-0.9,0.7v1.2l1.7,0.8l2,1.2l0.7,1.5
			l-0.2,3l-1.6-0.2l-3-3l-1,0.4l-5,0.2l-3.4-0.5l-3,0.7l-0.6-0.2l-4,0.7l-0.8-1.3l-2.1-0.3l-1,0.8h-1.3l-0.5,0.3l-1.3-0.2l-3-4.4
			l0.9-1.4l13-0.3l1.2-1L-780.8-194.8z"/>
	</g>
	<g id="Sulawesi-Tengah" transform="matrix(1,0,0,1,1161,533.033)" serif:id="Sulawesi Tengah">
		<path class="st3" d="M-780.7-339.5l-1.9,0.7l-0.7-0.9l-4.6,0.2l-1.7-1.2l-0.4-1.9l-1.2,1.1l-2.9-1.3l-3.8-0.1v3l-1,1.3l-1.1,1.2
			l-0.2,1.3l-1.8,0.2l-1.8-0.2l-0.8-2.3l-0.7,0.8l-0.8,1.9l-2.1,1.2l-0.3,1l0.6,1.4l-1,1.2l-1.7,2.4l-1.2,0.6l2,2.5l-1.2,1.9l-2.8-1
			l0.7,1.5l1.9,0.2l-0.6,3.4l-0.1,2.3l1.2,2.3l-0.1,1.4l-1.6-2.9l-2.3,3.8l3.8,14.2l7-0.9l6,6.4l10.6,4.1l2.3,2.2l-2.1,2.6l9.2,4.2
			l1.6-1.2l-0.2-1.1l-2.5-1l1-1l-1-1.2l-1.1-1l-1.3-0.6l-1-1.3l0.2-0.8l-4.2-6.2l-1.1,0.1l-0.8-0.8v-0.8l-2.2-1.9l-0.8,1.1l-0.4-2.9
			l0.6-0.6l3.2,2.6l2.1-0.4l0.6-2.1l3.4-2.2l2,0.1l2.6-2.1l5.8-7.4l3.9-0.9l1.7,2.4l1.9,0.1l0.7-3.4l-0.7-2.2l-2-0.8l-1.7-0.2
			l-5.1,1.4l2.9,1.2l-2.5,0.6l-1.8-0.4l-0.7,0.2l-5.3-0.3c0,0,0,2-0.5,2c-0.5,0-3.3,0.8-3.3,0.8l-1.4-0.2l-2.1-1.4l-3.5,2.8
			l-2.1,2.1l-1.6,3.5l-1.3-0.7l-2.1-0.7l-2.1,0.3l-1.3-1.9l-0.2-2.4l-1.8-1.9h-1.8l-2.6-3.9l-0.6-5.7l0.4-3.1l1.7-3.1l2.6-3.5
			l2.5-0.8l4.3,1.5l1.6-0.3l0.7,1l2.2-1.2l-2.9-4.4l1.1-1.5l12.7-0.1l1.3-1L-780.7-339.5z"/>
	</g>
	<g transform="matrix(1,0,0,1,1206.49,465.416)">
		<path class="st3" d="M-811.8-238.9l1.2,0.7l1-1.4l0.8-0.6l1.9,1.4l-0.4,1.2l-0.6,1l-0.8,0.6l-0.2,0.2l-1.2-1l-0.8,0.4l-0.2,0.1
			l-0.2,2l-0.7-0.2l-1.1-0.7l1-0.9v-1.3l-0.9-0.9l-0.7,1l-0.4,0.7l-1.1,1.3l-1.2,0.2l-0.3-0.9l-0.2-0.5l-0.3-0.6l0.2-1.2l0.7-1.5
			l0.4-0.6l2-0.3l1.1,0.1l1-0.4l0.6,1L-811.8-238.9z"/>
	</g>
	<g id="Sulawesi-Barat" transform="matrix(1,0,0,1,1046.27,446.595)" serif:id="Sulawesi Barat">
		<path class="st3" d="M-702.3-191.4l2.4-2.1l-0.1-6.1l5.2-0.1l-1.2-12.1l-4.3-14.5l-0.5,1.7l-0.3,1.5l-1.8,1.8l-0.4,3.3l0.6,2
			l-0.4,0.9l1,2.8l-2,2.2l-1.2,4.6l-1.4,2.4c0,0-3.7,1-3.7,1.9c0,0.9,1.8,3.5,1.8,3.5l-1.4,2.5l1,2.3l0.5,3.1l1.9,0.9l3.1-1.5
			L-702.3-191.4z"/>
	</g>
	<g id="Sulawesi-Selatan" transform="matrix(1,0,0,1,1092.43,486.676)" serif:id="Sulawesi Selatan">
		<path class="st3" d="M-733.9-200.6c0-0.7-2.6-6.6-2.6-6.6l0.7-4.1l1.1-0.6l0.7-1.9l-1.1-3.8l0.4-1.7l-0.5-3.2v-1.9l1.4-3.2
			l-1.1-4.3l0.4-1.2l-2.1-2.2v-1.8l5.7-5h1.7l2.6,0.8l0.8,2.9l7.2,1.1l2.1-2.6l-1.8-2.5l-11.1-4l-6.2-6.4l-6.6,1l1,12l-4.8-0.1v6.2
			l-3.7,2.6l3.2,1.5l-1,2.5l2.3,4.4l-0.3,6.7l-1.6,3.8l0.2,1.3l-2,5.3l0.8,3.9l1.5,0.6l0.3,1.4l1.2-1.1l2,1.5l2.2-2.8l2.3,0.8
			l2.9-1.7L-733.9-200.6z"/>
	</g>
	<g id="Bali" transform="matrix(1,0,0,1,843.008,787.207)">
		<path class="st3" d="M-563.4-466.8l0.6,0.6l1.1-0.2l1.3,0.3l1.5,0.6l2.2-0.1l1.7-1.6l1.3,0l3.9,1.7l2,2.1l0.5,1l-1.1,1.1
			c0,0-1.9,0.9-2,1c-0.1,0.1-2,0.7-2,0.7l-1,1.8l-0.7,1.5l-1.2-0.1l0.7-1.7l-1.5-2.3l-2.2-1.5l-2.1-0.9l-2-0.1l-1-1.6L-563.4-466.8z
			"/>
	</g>
	<g id="Pu-au-Sumba" transform="matrix(1,0,0,1,1029.09,841.595)" serif:id="Pu;au Sumba">
		<path class="st3" d="M-690.6-501l0.7-1.2l2.2-0.9l1.3-0.2l1.9-0.2l0.7-0.2l0.9,0.2l1-0.3l1.7,0.4l0.4,0.1l1.9-1l1.2,0.7l1,1.4
			l1.9,0.5l0.2,1.2l1,0.9l2-0.3l0.6,1l0.8,0.5l0.4,0.5v0.4l0.6,1l0.3,0.3l0.7,0.5l1,0.9l0.3,0.9l-1.3,2l-0.8,0.4l-0.2,0.2l-1.2-0.2
			l-0.9,0.8l-1,0.2l-1.3-0.5l-0.7-0.2l-0.9-0.1h-0.4l-1.9-1.8l-0.8-1.6l-0.9-0.7l-1.5-0.4l-0.9-0.6l-0.7-0.9l-0.9-0.4l-1.6-0.3
			l-1.3,0.3l-1-0.3l-2.5-0.2l-1-0.8l-0.6-0.9L-690.6-501z"/>
	</g>
	<g id="Nusa-Tenggara-Timur" transform="matrix(1,0,0,1,1069.77,757.799)" serif:id="Nusa Tenggara Timur">
		<path class="st3" d="M-718.4-426.5l-1.6-2v-1.9l0.9-1.2l-0.1-1.2l1.1,0.4l0.7-0.1l1.2-1l0.8-0.2l1.1-1.1l1-0.2l0.8,0.2l1.5-0.2
			l0.5-0.1l1.1,0.3l1,0.3l0.8,0.4h1.3l0.9,0.3l0.9-0.1l1.2,1l1.6,0.3l1.3,0.5l0.6,1l2.2,0.7l0.5-0.9l1.5-0.8l2.6,0.3l0.7-0.5
			l1.6-0.7l-0.1,1.1l0.9,0.5l1.1,0.7l0.8,0.7l1,0.1l1.2-0.5h0.7l0.9-1.3l0.9-1.4l0.3-0.3h1.2l0.7-0.5l0.8-0.6l1.2-1.1l-0.8-0.4
			l-0.8,0.5l-0.2-0.1v-1l1-1l1,0.5l1,2l-0.2,1l-0.9,0.1l-0.4,1l-0.9,0.5l0.3,2l-2.2,0.7l-1.2,0.3l-0.7,0.4l-0.4,0.2l-0.9,0.4
			l-1.6,0.2l-1.1-0.2l-1.3-0.1l-0.7,0.5l-1,0.6l-1.1,0.1l-1.3,0.7l-0.9,0.2l-0.7-0.1l-1.3-0.6l-2-0.3l-1,1.2l-0.7,0.5l-1-0.5
			l-1.4,0.2l-1,0.6l-1-0.2l-0.7-0.2l-0.8-1l-1-0.5l-0.8,0.7l-2.5-0.9l-1.6,0.2l-1.1,0.3l-1,0.1l-1-0.8l-1.1,0.2l-1.2,0.3
			L-718.4-426.5z"/>
	</g>
	<g transform="matrix(1,0,0,1,1196.07,769.873)">
		<path class="st3" d="M-804.7-442.3l-0.6-1l1-0.9l1.9-0.4l-0.6,0.9l-1,0.5L-804.7-442.3z"/>
	</g>
	<g transform="matrix(1,0,0,1,1209.31,761.739)">
		<path class="st3" d="M-813.7-437.1l0.8-0.8l-0.1-1.1l-1-0.3l-0.7-0.1l-0.7,0.5l-0.8,0.5l-0.3,0.3l-0.2,0.9l1,0.2l1-0.2
			L-813.7-437.1z"/>
	</g>
	<g transform="matrix(1,0,0,1,1209.31,764.203)">
		<path class="st3" d="M-813.7-438l2.9-2.6l-0.9-0.8l1.9,0.2l-0.1,0.9l2.8-2h1l1,1.1h-1l-1.3,1.2l-0.4,0.8l-1-0.1l-1,2.2l-1-0.5
			l-1,1L-813.7-438z"/>
	</g>
	<g transform="matrix(1,0,0,1,1238.41,767.901)">
		<path class="st3" d="M-833.6-443.6l0.3,1.1l0.6,0.3l1,1.2l1-0.5l0.3-1l1-1l0.4-1.6l-0.1-0.6l-0.8,0.2l-1.6,2.2l-0.7-1.1
			L-833.6-443.6z"/>
	</g>
	<g transform="matrix(1,0,0,1,1259.69,765.19)">
		<path class="st3" d="M-848.2-442.3l-0.6,0.1v-1.1l0.7-0.9h1.1l0.9,0.7l1-0.2l0.8-0.2l1,0.2l1-0.1l1.1-0.2l0.8-0.1l0.6,0.9l0.2,1.2
			l-1,1.1l-1.5,0.2l-1.7,0.1l-0.7,0.2l-1.3-0.1l-0.7,0.3l-0.9,0.1l-1.4,0.4l-0.8-0.2l-0.2-0.9l0.4-0.6l0.5-0.5L-848.2-442.3z"/>
	</g>
	<g id="Pulau-Timor" transform="matrix(1,0,0,1,1264.9,845.043)" serif:id="Pulau Timor">
		<path class="st3" d="M-851.7-509.6l0.5,0.8l-1.4,2.7l-0.1,0.3l-1.2,0.7l-1.5-1.6l-1.1,1.2l-0.1-0.1l-2.4-1.5l-0.8,0.1l-4.1,4
			l0.3,0.9l-0.7,1.3l0.4,0.9l-0.9,1.1v0.9l1.7,0.6l-0.1,1.2l-1.6,0.8l-0.4,0.1l-0.8,1l0.4,1.2l1,0.2h3.1l1-0.8l1.7-0.8l1.4-1.1
			l3-0.1l1-0.4l1.8-2l1.6-1.4l1.5-2l1.9-1.4l0.4-1.8l1-0.6l-0.4-3.8l1.9-1.9l-0.7-1.9l-2,0.1l-0.7,0.2l-1.6,0.9l-0.5,0.2l-1.1,0.9
			L-851.7-509.6z"/>
	</g>
	<g transform="matrix(1,0,0,1,1219.01,853.181)">
		<path class="st3" d="M-820.4-503.7l-1-0.3l-0.8,1.2l-0.4,0.4l0.1,1.2l1-0.5l0.4-0.9L-820.4-503.7z"/>
	</g>
	<g transform="matrix(1,0,0,1,1189.68,864.516)">
		<path class="st3" d="M-800.3-506.3l0.7,1.9h0.8l0.9-0.9l1.1-0.2l1.4-0.5l0.8-0.1l0.3-1.2l1.3-0.7l0.8-0.2l-0.7-0.9l0.3-1l-0.3-1.2
			l-1.6,1.5l-0.9,1l-0.7,0.5l-1.6,1l-1.3,0.4L-800.3-506.3z"/>
	</g>
	<g transform="matrix(1,0,0,1,1144.04,860.081)">
		<path class="st3" d="M-769.1-505l1.8,0.6l2.2-1.3l-0.6-1.2l-1-0.1l-0.6,0.5l-0.3,0.5L-769.1-505z"/>
	</g>
	<g id="Nusa-Tenggara-Barat" transform="matrix(1,0,0,1,939.92,767.411)" serif:id="Nusa Tenggara Barat">
		<path class="st3" d="M-629.6-437.2l-0.6,0.9v2.2l4.2,1.1l2.1-1.1l2.4,0.8l2.1-1.2l1.6-0.8h1.3l1.6-0.3l1.6-0.8l1.2,0.3l1.5-0.9
			l1.6-2.3l0.7,0.9l-0.6,0.6l0.1,1.2l1.2,0.5l1.9-0.6l1.2-0.3l1.8,0.8l1-0.3l-1.2-0.8l-1.6-0.5l0.9-0.5l2.2,0.3l1.6,0.3l1-0.3v-2.2
			l-0.9,0.9l-0.9-0.9v-1.9l-1-2.2h-1.9l-1.2,0.9l0.2,1.4l-0.4,0.5l-0.2-1.9l-0.9-0.9l-1.6-0.5l-1.5,0.8l-1,0.5l-0.4-0.3l-0.9-0.9
			l-0.7-1.2l-0.4-0.6l-1.6-0.3l-1.6-0.3l-1.6,1.1l-0.3,0.9v0.6l1.8,1.4l1.5,1.7l1.3-0.3l2.5,1.9l0.2,0.3l-0.5,0.2l-0.6,0.2h-1.3
			l-0.7,0.6l-0.4,0.3l-0.7,0.3l-1.2-0.5l-0.7-0.5l-0.4-0.6l-0.6-1.1l-0.7-0.2l-1-1.7h-0.7l-0.7,0.3l-0.6,0.6l-0.7-0.2l-1.6-0.9
			l-1-0.5l-1.5,0.9l-1.3,0.8l-1.5,1.2l-0.6,0.2l-0.2,1.1L-629.6-437.2z"/>
	</g>
	<g id="Pulau-Lombok" transform="matrix(1,0,0,1,899.712,769.873)" serif:id="Pulau Lombok">
		<path class="st3" d="M-602.2-440.3l0.1,0.9l1.9,1.4l1.2-0.8l2.2,0.9l0.4-0.2l1.2,1.1l0.4-1.6l2.1,0.2l-0.7-1.2l1.9-3.7l0.9-2.3
			l-0.7-0.9l-0.9-0.5l-3-1.1l-1,0.5l-2.1,2l-1.3,1.2l0.4,2.2v0.8l-1.3,1.1l-0.7,0.3L-602.2-440.3z"/>
	</g>
	<g id="Pulau-Buru" transform="matrix(1,0,0,1,1327.24,565.102)" serif:id="Pulau Buru">
		<path class="st3" d="M-894.3-313.8l1.5,0.9l2.5-1.3l3-0.2l2.5-0.2l2.1,0.9l1.3,0.7l1.3,1.1l-0.2,0.9h-0.8l0.2,0.9h1.1l1.3,1.1
			l-0.4,0.9l-0.4,1.8l-0.6,0.4l-1.9,0.4l-1.5,1.3l-1.5-0.2l-1.1,0.4l-0.6,0.2l-1.5-0.7l-1.9-0.9l-1.5-1.1l-1.1-1.1l-0.6-0.7
			l-0.6-0.9l-1.3-1.1l-0.6-1.5L-894.3-313.8z"/>
	</g>
	<g id="Maluku" transform="matrix(1,0,0,1,1400.16,555.34)">
		<path class="st3" d="M-944.1-303.6l1.3,2.4l0.2,1.1l-0.6,0.7v1.5l0.6-0.4l0.6-2l0.8-0.7v-1.8l0.8-1.8l1.3,1.1l0.2,0.9l1.3,0.9
			l1.3,1.8l1.3,0.7l2.3-1.1l1.7-2v-0.2l1.5-0.2l0.8,1.3l-0.8,0.7l1.7,0.2l2.3,0.7h2.1l1.9,0.9l0.2-1.1l-0.8-1.3l5.7,0.2l1.1,2.2l4,2
			l3.6,2l2.5,1.5l1.1-0.7l-0.4-1.5l0.4-1.5l-0.2-1.5l-0.6-1.1l-1.5-0.4l-0.8-0.7v-1.8l-1.7-1.8l-1.3-0.9l-5.1-0.4l-2.5-1.3l-2.5-0.7
			l-2.1-0.4h-1.3l-1.5,1.1l-1.9,0.7l-1.3-0.9l0.2-0.9l-1.5,0.7l-3.8-0.2l-2.5,0.2l-2.1,0.4h-1.3l-1.1,0.2v1.5l-1.7,1.1L-944.1-303.6
			z"/>
	</g>
	<g transform="matrix(1,0,0,1,1411.53,563.704)">
		<path class="st3" d="M-951.9-306l2.5-0.7l1.3-0.2l-1.1,1.3l-1.3,0.2l1.1,1.1l-1.9,1.3v-1.5l-0.8,0.2l-1.5,0.9l-1.1-0.4v-0.9
			L-951.9-306z"/>
	</g>
	<g transform="matrix(1,0,0,1,1672.65,662.91)">
		<path class="st3" d="M-1130.3-374.4l-1-0.6l-0.6-0.5l0.9-0.5l1,0.5l1-2.5l1-1.4h1.8l0.3,1.7v1.1l0.7,0.6l-0.6,1.7l0.7,1.4
			l-0.6,0.3l-1.5,0.3l1.6,1.4l0.6,1.4l-1,2l-1,0.8l-1.2-0.8l-1.3-0.8l-1.6-1.4v-1.2v-1.6L-1130.3-374.4z"/>
	</g>
	<g transform="matrix(1,0,0,1,1659.88,677.205)">
		<path class="st3" d="M-1121.6-375.3l2.1,2.3l2.5-2.8l1.8-1.9l-1-2l-2.1-1.4l-0.4-0.8l-1.9-1.9l-0.3,0.3l0.4,2l-0.1,1.2l1.3,1.2
			l-1.5-0.6L-1121.6-375.3z"/>
	</g>
	<g transform="matrix(1,0,0,1,1558.65,745.721)">
		<path class="st3" d="M-1052.4-437.1l1.3-0.3l-0.3-0.9l-0.7-0.6h-1l-0.4,1.1l-1.8,2.2l-0.4,1.2l-1.8,0.9l-0.6,1.9l0.2,0.8h-0.7
			l0.4,1.1l-1.3,0.9l0.7,0.9l-0.2,1.2l2.1-0.3l1,0.6l-0.1-1.9l1.8-1.4l0.1-0.9l1.3-0.5l0.9-1.6l0.4-1.4l-0.4-1.7L-1052.4-437.1z"/>
	</g>
	<g id="Pulau-Wetar" transform="matrix(1,0,0,1,1314.56,739.808)" serif:id="Pulau Wetar">
		<path class="st3" d="M-885.6-422.6l0.1,2.5l2.2-2l2.2-0.2l0.6,0.8l3-0.3l1.2,1.1l0.3-1.7l2.4-1.7l1.5,0.3v-1.6l-1-0.2l-1.9-1.1
			l-3.1,1.6h-1.2l-0.9,0.3l-3-0.9L-885.6-422.6z"/>
	</g>
	<g transform="matrix(1,0,0,1,1473.03,752.622)">
		<path class="st3" d="M-993.9-436.3l2.4,0.2l1.3,1.1l-0.4,2l-1,0.2l-1-0.3l-0.6-1.2l-0.6-0.6V-436.3z"/>
	</g>
	<g id="Maluku-Utara" transform="matrix(1,0,0,1,1406.18,438.925)" serif:id="Maluku Utara">
		<path class="st3" d="M-948.3-260.9l-4.7,5.1l-1.3,2.9l-0.2,2l-0.8,2.4l-0.6,1.3l0.4,0.7l-0.4,1.8h1.3l0.4,2l0.8,1.1l-0.6,1.1
			l-0.2,1.5l0.2,1.8l0.2,1.3l1.5,1.1l0.6,2.4l-0.4,3.1v1.3l-0.4,1.1l1.9,0.9l1.5,0.9l1.3,2.9l0.6,1.5l2.5,1.1l0.4,1.1h1.5l-0.8-1.3
			l-2.1-2.4l-1.5-2.2l-1.9-5.1l-0.6-1.3l0.6-2.2v-1.5l0.4-2.6l2.5,0.4l1.3,1.1l2.8-0.4l2.3,1.5l1.9,0.2l2.1,0.9l-1.3-1.8l-1.5-0.2
			l-0.6-2.2l-1.3-0.9l-3.4-1.5l-1.3-0.9v-0.9l1.1-0.2l0.6-1.3l3.2-1.3l1.5-1.5l0.6-2.9l-0.4-1.1l-0.6-2l-1.5,0.4l-1.9,0.4l-2.1,1.1
			l-1.1,1.8l-0.4,1.1l0.8,0.7l-1.1,0.9l-1.1-0.2l-1.9,1.3l-0.2,2v1.3h-1.5l-0.8-0.9l-0.6-0.7l-0.2-1.1l1.3-1.8l1.1-0.7l2.1-1.1
			l0.4-1.5l0.4-2.4l-0.4-2.4l-0.4-1.3l-1.7-0.9v-1.1l1.3-1.1L-948.3-260.9z"/>
	</g>
	<g transform="matrix(1,0,0,1,1416.21,294.627)">
		<path class="st3" d="M-955.1-117.5l0.4,2l0.2,1.1h1.7l2.3-0.7l0.6-1.5l0.6-2.4l0.4-1.1l-0.6-1.1l-0.4-1.1l-0.6-0.7l-0.6,0.9
			l-0.6,0.7l-1.5,0.9l-0.8,1.1L-955.1-117.5z"/>
	</g>
	<g transform="matrix(1,0,0,1,1379.42,438.926)">
		<path class="st3" d="M-930-225.8h2.1l1.3-0.2l1.3,2v1.1l-0.8,0.4l-0.2,1.3h1.5l2.1,0.4l0.2,1.1l-1.1,1.3h-0.8l-0.8-1.1l-0.8-0.4
			h-0.6l-0.6,0.2l-1.1-0.7l-0.2-0.7l0.8-0.7l-1.3-0.9l-0.8-0.9l-0.2-0.9L-930-225.8z"/>
	</g>
	<g transform="matrix(1,0,0,1,1382.76,471.689)">
		<path class="st3" d="M-932.2-243.3l3.2-1.5l2.5,1.1l2.3,1.3l1.3,1.1l0.8,0.7l-1.1,1.1l-1.5-0.2l-0.8-0.4l-1.1,0.4l-1.1-0.2
			l-0.8-0.2l-1.7,0.9l-2.3-1.1L-932.2-243.3z"/>
	</g>
	<g transform="matrix(1,0,0,1,1297.14,482.146)">
		<path class="st3" d="M-873.7-248.3l0.2-1.1l1.7,0.7l1.5-0.2h1.1l1.9,0.2l1.9-0.2h1.1l1.5,0.2h1.3v0.7l-0.8,0.4h-0.8l-1.5,0.2
			l-1.1,0.4l-1.1-0.2h-1.5l-1.1-0.2h-1.1l-0.6,0.2h-1.3L-873.7-248.3z"/>
	</g>
	<g transform="matrix(1,0,0,1,1257.67,488.419)">
		<path class="st3" d="M-846.8-257.2l1.3-0.2h1.9l1.5,0.2l0.8,0.4h0.8l1.1,0.4l0.8,0.4l0.8,0.2l0.4-0.7l0.6,0.2l0.4,0.4l1.1,0.2v1.1
			l-0.8,0.2h-1.5l-0.6,0.4l-0.6,0.2l-0.8,0.2l-0.6-0.2h-0.8l-0.6-0.2l-1.1,0.4h-0.8l-0.2,0.9l-1.3,0.2h-1.3l-0.8-0.9l-0.8-0.9v-1.1
			l0.6-0.9L-846.8-257.2z"/>
	</g>
	<g transform="matrix(1,0,0,1,1855.24,770.862)">
		<path class="st3" d="M-1255.1-448.9l-0.9,1.6l-0.9,0.8l2.4,1.2l1.6-0.3L-1255.1-448.9z"/>
	</g>
	<g transform="matrix(1,0,0,1,1718.06,483.978)">
		<path class="st3" d="M-1161.4-253.5l0.7,1.6l1.8,0.2l1.3-0.2l6.9,2.5l1-0.3l2.2,0.5l2.4-0.6l2.4-0.5l-0.9-1.1l-2.7-0.2l-2.4-0.2
			l-2.8-1.1l-3.6,0.3l-2.8-0.6L-1161.4-253.5z"/>
	</g>
	<g transform="matrix(1,0,0,1,1730.83,448.981)">
		<path class="st3" d="M-1170.1-229l1.2,2.7v1.6l1.2,1.1l0.7-0.6l1.6,0.8l2.2-0.5l1.5-0.9l-1.6-0.6l-1.5-0.9l-1-1.6l-1.3-1.2
			l-1.5-1.1l-0.4-0.5L-1170.1-229z"/>
	</g>
	<g transform="matrix(1,0,0,1,1855.24,769.873)">
		<path class="st3" d="M-1255.1-459.3l-3.1,0.3l-2.8,0.6l-2.5,2l-2.8,3.7l-0.9,2.3l-1.2,2.2l-0.7,3l2.5-0.5l3.6,0.5l2.2,0.3l1,0.2
			l2.8-1.7l1.2-2.2l2.1-0.9l1.2-6.9L-1255.1-459.3z"/>
	</g>
	<g transform="matrix(1,0,0,1,1517.5,456.376)">
		<path class="st3" d="M-1024.3-235l4-0.8l1.6,0.8l0.1,2l-0.6,0.9v1.2l-0.7,1.1h-1.5l-1-1.1l-1.3-1.7v-1.2L-1024.3-235z"/>
	</g>
	<g transform="matrix(1,0,0,1,1519.86,416.942)">
		<path class="st3" d="M-1025.9-207.4l1.6,1.9v0.6l1.3,0.2l0.3,1.2h1.6l1.2-0.6l1,1.1l0.9-1.4v-1.7l-1.2-0.6l-0.9-0.6h-1.2l-3-0.9
			l-1.3,0.2l-1.9,0.2l-1.5,0.6h-1.2l-0.9,0.2l-0.4,1.1l1.2-0.8l0.5,1.4l-1.9-0.3l1,1.1h1.9l0.9,0.9l0.3,0.6l1.2-1.2l1.2,1.6l0.7,0.3
			l1.6-0.5l-0.1-0.9l-1-0.5h-1l-0.6-0.8l-0.9-1.4L-1025.9-207.4z"/>
	</g>
	<g transform="matrix(1,0,0,1,1481.07,484.471)">
		<path class="st3" d="M-999.4-250.7l2.5-0.5l0.7-0.9l2.2-0.2l1.3-0.5l1.6,0.6l0.1,2l-1,0.8l0.6,1.1l-1.3-0.3l-0.9,0.8l-1,0.2
			l-0.7-0.6l-1.6-0.2l-1.8-0.6l-0.7-0.6V-250.7z"/>
	</g>
	<g transform="matrix(1,0,0,1,1241.24,808.811)">
		<path class="st3" d="M-835.5-471.3l3,2.5l0.9-2.2l1.8,1.9l1.5-1.9l0.9-1.6v-1.2h-0.9l-3.3,0.9h-1.5L-835.5-471.3z"/>
	</g>
	<path id="kalimatan-timur" class="st4" d="M291.3,193.8l-2.4-1.4l-3.2-1.2l-2.1-1.4l-2.9-1.4l2.9,1.4l2.1,1.4l3.2,1.2L291.3,193.8
		l3.8-1.4l0.9-2.8l1.8-2.8l2.5-0.9l3.2-1.7l1.3-5.3l1.3-3l2.4-0.5l1.2-1.6l2.5,0.1l2.8,1.2l1.9-0.5l1.2-0.5l2.5,1l2.4,0.9l1.6,0.5
		l2.6,0.1l-2.8,3.4l-1.3,0.3l1.9,1.3l1.8,2.4l3.9,3l1.7,1.8l1.9,0.7l2.6,3.2l2.1,0.7l-2.9,3.6l-1.7-0.4l-0.6,0.4l-2.5-0.8L331,197
		l-4.3-1.8l-1.8-2.3l1.6,3.6v0.9l-2.4-0.7l-4.9,10.7l0.6,1.3l-1.4,3.6l1.1,0.9l-0.8,2.1l2.4-1l-0.8,2.4l0.2,0.8l-0.5,1.8l-2.8,1.1
		l-1.1-1.3v1.8l-2.6,3.6l-2.2,1.2l-1.8-3l-0.5,1l0.7,3l-3,2.1l0.1,1.8l-3.7,1.5l0.1,1l0.7-0.7l1.9,1.3l0.1,2.9l-2.3,1.2l1.7-0.1v0.3
		l2.1,0.6l-0.1,1.5l-7.8-1.2l0.2-3.2l-0.5-3.5l1.2-1.5l0.2-2.9l-3.5-2.2l-1-2.5l-4.6-2.3l0.3-4l-1.7-1.9l0.3-3.3l-0.8-4l-3.1,2.4
		l-0.8-0.7l1.9-6.8l0.3-3.3l-2.2-1.7l-6.5,2.1l-6.6-0.9l-0.5-1.3l-1-2.4l0.6-2.5l3.7-1.4l0.6-3l3.1-0.8l1.6,1L291.3,193.8z"/>
</g>
</svg>
